<svg width="441px" height="283px" viewBox="0 0 441 283" xmlns="http://www.w3.org/2000/svg" xmlns:xlink="http://www.w3.org/1999/xlink" style="display: block; letter-spacing: normal; word-spacing: normal; width: 441px; height: 283px;"><rect x="0" y="0" width="441" height="283" fill="white" transform="matrix(1, 0, 0, 1, 0, 0)"/><g clip-path="url(#mainClip9962)"><g class="gojs-diagram" transform="matrix(1, 0, 0, 1, 27.249984741210938, 26.43518524169922)"><g transform="matrix(1, 0, 0, 1, -26.249984741210938, -25.43518524169922)" data-class-name="Group" data-key="Objeto1"><g transform="matrix(1, 0, 0, 1, 0, 0)"><path stroke="none" fill="url(#GRAD9963)" d="M 0,0 L 51.499969482421875,0 L 51.499969482421875,24.43518524169922 L 0,24.43518524169922 z" transform="matrix(1, 0, 0, 1, 0.5, 0.5)"/><text x="0" y="10.826388931274415" style="font: 400 10pt Source Sans Pro, sans-serif" text-anchor="start" fill="black" transform="matrix(1, 0, 0, 1, 5.5, 5.5)">Evento</text></g><path stroke="gray" fill="none" stroke-width="1" stroke-linecap="butt" stroke-linejoin="miter" stroke-miterlimit="10" stroke-dasharray="3,3" stroke-dashoffset="0" d="M 0.5,0 L 0.5,254" transform="matrix(1, 0, 0, 1, 25.749984741210938, 25.93518524169922)" data-port-id=""/></g><g transform="matrix(1, 0, 0, 1, 131.0145263671875, -25.43518524169922)" data-class-name="Group" data-key="Objeto2"><g transform="matrix(1, 0, 0, 1, 0, 0)"><path stroke="none" fill="url(#GRAD9964)" d="M 0,0 L 52.970947265625,0 L 52.970947265625,24.43518524169922 L 0,24.43518524169922 z" transform="matrix(1, 0, 0, 1, 0.5, 0.5)"/><text x="0" y="10.826388931274415" style="font: 400 10pt Source Sans Pro, sans-serif" text-anchor="start" fill="black" transform="matrix(1, 0, 0, 1, 5.5, 5.5)">Control</text></g><path stroke="gray" fill="none" stroke-width="1" stroke-linecap="butt" stroke-linejoin="miter" stroke-miterlimit="10" stroke-dasharray="3,3" stroke-dashoffset="0" d="M 0.5,0 L 0.5,254" transform="matrix(1, 0, 0, 1, 26.4854736328125, 25.93518524169922)" data-port-id=""/></g><g transform="matrix(1, 0, 0, 1, 244.3045196533203, -25.43518524169922)" data-class-name="Group" data-key="Objeto3"><g transform="matrix(1, 0, 0, 1, 0, 0)"><path stroke="none" fill="url(#GRAD9965)" d="M 0,0 L 60.390960693359375,0 L 60.390960693359375,24.43518524169922 L 0,24.43518524169922 z" transform="matrix(1, 0, 0, 1, 0.5, 0.5)"/><text x="0" y="10.826388931274415" style="font: 400 10pt Source Sans Pro, sans-serif" text-anchor="start" fill="black" transform="matrix(1, 0, 0, 1, 5.5, 5.5)">Objeto 3</text></g><path stroke="gray" fill="none" stroke-width="1" stroke-linecap="butt" stroke-linejoin="miter" stroke-miterlimit="10" stroke-dasharray="3,3" stroke-dashoffset="0" d="M 0.5,0 L 0.5,254" transform="matrix(1, 0, 0, 1, 30.195480346679688, 25.93518524169922)" data-port-id=""/></g><g transform="matrix(1, 0, 0, 1, 0, 35)" data-class-name="Node" data-key="-4"><path stroke="black" fill="white" stroke-width="1" stroke-linecap="butt" stroke-linejoin="miter" stroke-miterlimit="10" d="M 0,0 L 10,0 L 10,50 L 0,50 z" transform="matrix(1, 0, 0, 1, 0.5, 0.5)"/></g><g transform="matrix(1, 0, 0, 1, 158, 55)" data-class-name="Node" data-key="-5"><path stroke="black" fill="white" stroke-width="1" stroke-linecap="butt" stroke-linejoin="miter" stroke-miterlimit="10" d="M 0,0 L 10,0 L 10,70 L 0,70 z" transform="matrix(1, 0, 0, 1, 0.5, 0.5)"/></g><g transform="matrix(1, 0, 0, 1, 275, 55)" data-class-name="Node" data-key="-6"><path stroke="black" fill="white" stroke-width="1" stroke-linecap="butt" stroke-linejoin="miter" stroke-miterlimit="10" d="M 0,0 L 10,0 L 10,30 L 0,30 z" transform="matrix(1, 0, 0, 1, 0.5, 0.5)"/></g><g transform="matrix(1, 0, 0, 1, 0, 165)" data-class-name="Node" data-key="-7"><path stroke="black" fill="white" stroke-width="1" stroke-linecap="butt" stroke-linejoin="miter" stroke-miterlimit="10" d="M 0,0 L 10,0 L 10,30 L 0,30 z" transform="matrix(1, 0, 0, 1, 0.5, 0.5)"/></g><g transform="matrix(1, 0, 0, 1, 158, 205)" data-class-name="Node" data-key="-8"><path stroke="black" fill="white" stroke-width="1" stroke-linecap="butt" stroke-linejoin="miter" stroke-miterlimit="10" d="M 0,0 L 10,0 L 10,30 L 0,30 z" transform="matrix(1, 0, 0, 1, 0.5, 0.5)"/></g><g transform="matrix(1, 0, 0, 1, -0.30775122549025014, 8.5)" data-class-name="Node" data-key="Cond"><g transform="matrix(1, 0, 0, 1, 0, 0)"><path stroke="black" fill="rgb(0,0,0)" fill-opacity="0.1" stroke-width="2" stroke-linecap="butt" stroke-linejoin="miter" stroke-miterlimit="10" d="M 0,0 L 290.6155024509805,0 L 290.6155024509805,141 L 0,141 z" transform="matrix(1, 0, 0, 1, 1, 1)"/><g transform="matrix(1, 0, 0, 1, 96.30775122549025, 21.5)"/><text x="0" y="12.994921875000001" style="font: bold 16px sans-serif" text-anchor="start" fill="black" transform="matrix(1, 0, 0, 1, 4, 4)">IF (Evento==actions.inicia)</text></g></g><g transform="matrix(1, 0, 0, 1, 365.3502655029297, -25.43518524169922)" data-class-name="Group" data-key="newNode1714048119018"><g transform="matrix(1, 0, 0, 1, 0, 0)"><path stroke="none" fill="url(#GRAD9966)" d="M 0,0 L 46.299468994140625,0 L 46.299468994140625,24.43518524169922 L 0,24.43518524169922 z" transform="matrix(1, 0, 0, 1, 0.5, 0.5)"/><text x="0" y="10.826388931274415" style="font: 400 10pt Source Sans Pro, sans-serif" text-anchor="start" fill="black" transform="matrix(1, 0, 0, 1, 5.5, 5.5)">Fases</text></g><path stroke="gray" fill="none" stroke-width="1" stroke-linecap="butt" stroke-linejoin="miter" stroke-miterlimit="10" stroke-dasharray="3,3" stroke-dashoffset="0" d="M 0.5,0 L 0.5,110" transform="matrix(1, 0, 0, 1, 23.149734497070312, 25.93518524169922)" data-port-id=""/></g><g transform="matrix(1, 0, 0, 1, 389, 180)" data-class-name="Node" data-key="-11"><path stroke="black" fill="white" stroke-width="1" stroke-linecap="butt" stroke-linejoin="miter" stroke-miterlimit="10" d="M 0,0 L 10,0 L 10,30 L 0,30 z" transform="matrix(1, 0, 0, 1, 0.5, 0.5)"/></g><g transform="matrix(1, 0, 0, 1, 4.5, 24.005078124999997)" data-class-name="Link" data-key="-1" data-from-key="Objeto1" data-to-key="Objeto3"><path stroke="black" fill="none" stroke-width="1" stroke-linecap="butt" stroke-linejoin="miter" stroke-miterlimit="10" d="M 0,0 L 270,0" transform="matrix(1, 0, 0, 1, 0.5, 15.994921875000003)"/><path stroke="black" fill="none" stroke-width="1" stroke-linecap="butt" stroke-linejoin="miter" stroke-miterlimit="10" d="M 0,0 L 8,4 L 0,8" transform="matrix(1, 0, 0, 1, 262, 11.994921875000003)"/><text x="0" y="9.74619140625" style="font: 400 9pt Source Sans Pro, sans-serif" text-anchor="start" fill="black" transform="matrix(1, 0, 0, 1, 3.5, 0)">actions()</text></g><g transform="matrix(1, 0, 0, 1, 4.5, 44.005078125)" data-class-name="Link" data-key="-2" data-from-key="Objeto1" data-to-key="Objeto3"><path stroke="black" fill="none" stroke-width="1" stroke-linecap="butt" stroke-linejoin="miter" stroke-miterlimit="10" d="M 0,0 L 265,0" transform="matrix(1, 0, 0, 1, 0.5, 15.994921875000003)"/><path stroke="black" fill="none" stroke-width="1" stroke-linecap="butt" stroke-linejoin="miter" stroke-miterlimit="10" d="M 0,0 L 8,4 L 0,8" transform="matrix(1, 0, 0, 1, 257, 11.994921875000003)"/><text x="0" y="9.74619140625" style="font: 400 9pt Source Sans Pro, sans-serif" text-anchor="start" fill="black" transform="matrix(1, 0, 0, 1, 3.5, 0)">searchBook(book=integer) and &lt;&lt;destroy&gt;&gt;</text></g><g transform="matrix(1, 0, 0, 1, 4.5, 75.5)" data-class-name="Link" data-key="-3" data-from-key="Objeto3" data-to-key="Objeto1"><path stroke="black" fill="none" stroke-width="1" stroke-linecap="butt" stroke-linejoin="miter" stroke-miterlimit="10" d="M 265,0 L 0,0" transform="matrix(1, 0, 0, 1, 0.5, 4.5)"/><path stroke="black" fill="none" stroke-width="1" stroke-linecap="butt" stroke-linejoin="miter" stroke-miterlimit="10" d="M 0,0 L 8,4 L 0,8" transform="matrix(-1, 0, 0, -1, 9, 8.5)"/><text x="0" y="9.74619140625" style="font: 400 9pt Source Sans Pro, sans-serif" text-anchor="start" fill="black" transform="matrix(1, 0, 0, 1, 221.8125, 7.500000000000001)">book(3)</text></g><g transform="matrix(1, 0, 0, 1, 4.5, 164.005078125)" data-class-name="Link" data-key="-4" data-from-key="Objeto1" data-to-key="Objeto2"><path stroke="black" fill="none" stroke-width="1" stroke-linecap="butt" stroke-linejoin="miter" stroke-miterlimit="10" d="M 0,0 L 153,0" transform="matrix(1, 0, 0, 1, 0.5, 15.994921875000003)"/><path stroke="black" fill="none" stroke-width="1" stroke-linecap="butt" stroke-linejoin="miter" stroke-miterlimit="10" d="M 0,0 L 8,4 L 0,8" transform="matrix(1, 0, 0, 1, 145, 11.994921875000003)"/><text x="0" y="9.74619140625" style="font: 400 9pt Source Sans Pro, sans-serif" text-anchor="start" fill="black" transform="matrix(1, 0, 0, 1, 3.5, 0)">takeOrder</text></g><g transform="matrix(1, 0, 0, 1, -0.5, 195.5)" data-class-name="Link" data-key="-5" data-from-key="Objeto2" data-to-key="Objeto1"><path stroke="black" fill="none" stroke-width="1" stroke-linecap="butt" stroke-linejoin="miter" stroke-miterlimit="10" d="M 158,0 L 0,0" transform="matrix(1, 0, 0, 1, 0.5, 4.5)"/><path stroke="black" fill="none" stroke-width="1" stroke-linecap="butt" stroke-linejoin="miter" stroke-miterlimit="10" d="M 0,0 L 8,4 L 0,8" transform="matrix(-1, 0, 0, -1, 9, 8.5)"/><text x="0" y="9.74619140625" style="font: 400 9pt Source Sans Pro, sans-serif" text-anchor="start" fill="black" transform="matrix(1, 0, 0, 1, 44.78125, 7.500000000000001)">serve orderReceived</text></g><g transform="matrix(1, 0, 0, 1, -0.5, 199.005078125)" data-class-name="Link" data-key="-6" data-from-key="Objeto1" data-to-key="Objeto2"><path stroke="black" fill="none" stroke-width="1" stroke-linecap="butt" stroke-linejoin="miter" stroke-miterlimit="10" d="M 0,0 L 153,0" transform="matrix(1, 0, 0, 1, 0.5, 15.994921875000003)"/><path stroke="black" fill="none" stroke-width="1" stroke-linecap="butt" stroke-linejoin="miter" stroke-miterlimit="10" d="M 0,0 L 8,4 L 0,8" transform="matrix(1, 0, 0, 1, 145, 11.994921875000003)"/><text x="0" y="9.74619140625" style="font: 400 9pt Source Sans Pro, sans-serif" text-anchor="start" fill="black" transform="matrix(1, 0, 0, 1, 3.5, 0)">prob</text></g><g transform="matrix(1, 0, 0, 1, 274.5, 179.005078125)" data-class-name="Link" data-key="-7" data-from-key="Objeto3" data-to-key="newNode1714048119018"><path stroke="black" fill="none" stroke-width="1" stroke-linecap="butt" stroke-linejoin="miter" stroke-miterlimit="10" d="M 0,0 L 109,0" transform="matrix(1, 0, 0, 1, 0.5, 15.994921875000003)"/><path stroke="black" fill="none" stroke-width="1" stroke-linecap="butt" stroke-linejoin="miter" stroke-miterlimit="10" d="M 0,0 L 8,4 L 0,8" transform="matrix(1, 0, 0, 1, 101, 11.994921875000003)"/><text x="0" y="9.74619140625" style="font: 400 9pt Source Sans Pro, sans-serif" text-anchor="start" fill="black" transform="matrix(1, 0, 0, 1, 3.5, 0)">mensaje</text></g></g><g transform="matrix(1, 0, 0, 1, 27.249984741210938, 26.43518524169922)"/></g><clipPath id="mainClip9962"><rect x="0" y="0" width="441px" height="283px"/></clipPath><linearGradient x1="25.749984741210938" x2="25.749984741210938" y1="0" y2="24.43518524169922" id="GRAD9963" gradientUnits="userSpaceOnUse"><stop offset="0" stop-color="#bbdefb"/><stop offset="1" stop-color="rgb(159,194,222)" stop-opacity="1"/></linearGradient><linearGradient x1="26.4854736328125" x2="26.4854736328125" y1="0" y2="24.43518524169922" id="GRAD9964" gradientUnits="userSpaceOnUse"><stop offset="0" stop-color="#bbdefb"/><stop offset="1" stop-color="rgb(159,194,222)" stop-opacity="1"/></linearGradient><linearGradient x1="30.195480346679688" x2="30.195480346679688" y1="0" y2="24.43518524169922" id="GRAD9965" gradientUnits="userSpaceOnUse"><stop offset="0" stop-color="#bbdefb"/><stop offset="1" stop-color="rgb(159,194,222)" stop-opacity="1"/></linearGradient><linearGradient x1="23.149734497070312" x2="23.149734497070312" y1="0" y2="24.43518524169922" id="GRAD9966" gradientUnits="userSpaceOnUse"><stop offset="0" stop-color="#bbdefb"/><stop offset="1" stop-color="rgb(159,194,222)" stop-opacity="1"/></linearGradient></svg>