<svg width="481px" height="154px" viewBox="0 0 481 154" xmlns="http://www.w3.org/2000/svg" xmlns:xlink="http://www.w3.org/1999/xlink" style="display: block; letter-spacing: normal; word-spacing: normal; width: 481px; height: 154px;"><rect x="0" y="0" width="481" height="154" fill="white" transform="matrix(1, 0, 0, 1, 0, 0)"/><g clip-path="url(#mainClip691)"><g class="gojs-diagram" transform="matrix(1, 0, 0, 1, -198.23326110839844, 26.43518524169922)"><g transform="matrix(1, 0, 0, 1, 364, 24)" data-class-name="Node" data-key="Cond"><g transform="matrix(1, 0, 0, 1, 0, 0)"><path stroke="black" fill="rgb(0,0,0)" fill-opacity="0.1" stroke-width="2" stroke-linecap="butt" stroke-linejoin="miter" stroke-miterlimit="10" d="M 0,0 L 100,0 L 100,100 L 0,100 z" transform="matrix(1, 0, 0, 1, 1, 1)"/><g transform="matrix(1, 0, 0, 1, 1, 1)"/></g></g><g transform="matrix(1, 0, 0, 1, 199.23326110839844, -25.43518524169922)" data-class-name="Group" data-key="newNode1714019701716"><g transform="matrix(1, 0, 0, 1, 0, 0)"><path stroke="none" fill="url(#GRAD692)" d="M 0,0 L 68.53347778320312,0 L 68.53347778320312,24.43518524169922 L 0,24.43518524169922 z" transform="matrix(1, 0, 0, 1, 0.5, 0.5)"/><text x="0" y="10.826388931274415" style="font: 400 10pt Source Sans Pro, sans-serif" text-anchor="start" fill="black" transform="matrix(1, 0, 0, 1, 5.5, 5.5)">NewNode</text></g><path stroke="gray" fill="none" stroke-width="1" stroke-linecap="butt" stroke-linejoin="miter" stroke-miterlimit="10" stroke-dasharray="3,3" stroke-dashoffset="0" d="M 0.5,0 L 0.5,110" transform="matrix(1, 0, 0, 1, 34.26673889160156, 25.93518524169922)" data-port-id=""/></g><g transform="matrix(1, 0, 0, 1, 369.23326110839844, -25.43518524169922)" data-class-name="Group" data-key="newNode1714019706692"><g transform="matrix(1, 0, 0, 1, 0, 0)"><path stroke="none" fill="url(#GRAD693)" d="M 0,0 L 68.53347778320312,0 L 68.53347778320312,24.43518524169922 L 0,24.43518524169922 z" transform="matrix(1, 0, 0, 1, 0.5, 0.5)"/><text x="0" y="10.826388931274415" style="font: 400 10pt Source Sans Pro, sans-serif" text-anchor="start" fill="black" transform="matrix(1, 0, 0, 1, 5.5, 5.5)">NewNode</text></g><path stroke="gray" fill="none" stroke-width="1" stroke-linecap="butt" stroke-linejoin="miter" stroke-miterlimit="10" stroke-dasharray="3,3" stroke-dashoffset="0" d="M 0.5,0 L 0.5,110" transform="matrix(1, 0, 0, 1, 34.26673889160156, 25.93518524169922)" data-port-id=""/></g><g transform="matrix(1, 0, 0, 1, 404, 35)" data-class-name="Node" data-key="-4"><path stroke="black" fill="white" stroke-width="1" stroke-linecap="butt" stroke-linejoin="miter" stroke-miterlimit="10" d="M 0,0 L 10,0 L 10,30 L 0,30 z" transform="matrix(1, 0, 0, 1, 0.5, 0.5)"/></g><g transform="matrix(1, 0, 0, 1, 504.23326110839844, -25.43518524169922)" data-class-name="Group" data-key="newNode1714020023948"><g transform="matrix(1, 0, 0, 1, 0, 0)"><path stroke="none" fill="url(#GRAD694)" d="M 0,0 L 68.53347778320312,0 L 68.53347778320312,24.43518524169922 L 0,24.43518524169922 z" transform="matrix(1, 0, 0, 1, 0.5, 0.5)"/><text x="0" y="10.826388931274415" style="font: 400 10pt Source Sans Pro, sans-serif" text-anchor="start" fill="black" transform="matrix(1, 0, 0, 1, 5.5, 5.5)">NewNode</text></g><path stroke="gray" fill="none" stroke-width="1" stroke-linecap="butt" stroke-linejoin="miter" stroke-miterlimit="10" stroke-dasharray="3,3" stroke-dashoffset="0" d="M 0.5,0 L 0.5,110" transform="matrix(1, 0, 0, 1, 34.26673889160156, 25.93518524169922)" data-port-id=""/></g><g transform="matrix(1, 0, 0, 1, 608.2332611083984, -25.43518524169922)" data-class-name="Group" data-key="newNode1714020026433"><g transform="matrix(1, 0, 0, 1, 0, 0)"><path stroke="none" fill="url(#GRAD695)" d="M 0,0 L 68.53347778320312,0 L 68.53347778320312,24.43518524169922 L 0,24.43518524169922 z" transform="matrix(1, 0, 0, 1, 0.5, 0.5)"/><text x="0" y="10.826388931274415" style="font: 400 10pt Source Sans Pro, sans-serif" text-anchor="start" fill="black" transform="matrix(1, 0, 0, 1, 5.5, 5.5)">NewNode</text></g><path stroke="gray" fill="none" stroke-width="1" stroke-linecap="butt" stroke-linejoin="miter" stroke-miterlimit="10" stroke-dasharray="3,3" stroke-dashoffset="0" d="M 0.5,0 L 0.5,110" transform="matrix(1, 0, 0, 1, 34.26673889160156, 25.93518524169922)" data-port-id=""/></g><g transform="matrix(1, 0, 0, 1, 233.5, 24.005078124999997)" data-class-name="Link" data-key="-1" data-from-key="newNode1714019701716" data-to-key="newNode1714019706692"><path stroke="black" fill="none" stroke-width="1" stroke-linecap="butt" stroke-linejoin="miter" stroke-miterlimit="10" d="M 0,0 L 165,0" transform="matrix(1, 0, 0, 1, 0.5, 15.994921875000003)"/><path stroke="black" fill="none" stroke-width="1" stroke-linecap="butt" stroke-linejoin="miter" stroke-miterlimit="10" d="M 0,0 L 8,4 L 0,8" transform="matrix(1, 0, 0, 1, 157, 11.994921875000003)"/><text x="0" y="9.74619140625" style="font: 400 9pt Source Sans Pro, sans-serif" text-anchor="start" fill="black" transform="matrix(1, 0, 0, 1, 3.5, 0)">mensaje</text></g></g><g transform="matrix(1, 0, 0, 1, -198.23326110839844, 26.43518524169922)"/></g><clipPath id="mainClip691"><rect x="0" y="0" width="481px" height="154px"/></clipPath><linearGradient x1="34.26673889160156" x2="34.26673889160156" y1="0" y2="24.43518524169922" id="GRAD692" gradientUnits="userSpaceOnUse"><stop offset="0" stop-color="#bbdefb"/><stop offset="1" stop-color="rgb(159,194,222)" stop-opacity="1"/></linearGradient><linearGradient x1="34.26673889160156" x2="34.26673889160156" y1="0" y2="24.43518524169922" id="GRAD693" gradientUnits="userSpaceOnUse"><stop offset="0" stop-color="#bbdefb"/><stop offset="1" stop-color="rgb(159,194,222)" stop-opacity="1"/></linearGradient><linearGradient x1="34.26673889160156" x2="34.26673889160156" y1="0" y2="24.43518524169922" id="GRAD694" gradientUnits="userSpaceOnUse"><stop offset="0" stop-color="#bbdefb"/><stop offset="1" stop-color="rgb(159,194,222)" stop-opacity="1"/></linearGradient><linearGradient x1="34.26673889160156" x2="34.26673889160156" y1="0" y2="24.43518524169922" id="GRAD695" gradientUnits="userSpaceOnUse"><stop offset="0" stop-color="#bbdefb"/><stop offset="1" stop-color="rgb(159,194,222)" stop-opacity="1"/></linearGradient></svg>