<svg width="398px" height="279px" viewBox="0 0 398 279" xmlns="http://www.w3.org/2000/svg" xmlns:xlink="http://www.w3.org/1999/xlink" style="display: block; letter-spacing: normal; word-spacing: normal; width: 398px; height: 279px;"><rect x="0" y="0" width="398" height="279" fill="white" transform="matrix(1, 0, 0, 1, 0, 0)"/><g clip-path="url(#mainClip763)"><g class="gojs-diagram" transform="matrix(1, 0, 0, 1, 31.695480346679688, 26.43518524169922)"><g transform="matrix(1, 0, 0, 1, -30.695480346679688, -25.43518524169922)" data-class-name="Group" data-key="Objeto1"><g transform="matrix(1, 0, 0, 1, 0, 0)"><path stroke="none" fill="url(#GRAD764)" d="M 0,0 L 60.390960693359375,0 L 60.390960693359375,24.43518524169922 L 0,24.43518524169922 z" transform="matrix(1, 0, 0, 1, 0.5, 0.5)"/><text x="0" y="10.826388931274415" style="font: 400 10pt Source Sans Pro, sans-serif" text-anchor="start" fill="black" transform="matrix(1, 0, 0, 1, 5.5, 5.5)">Objeto 1</text></g><path stroke="gray" fill="none" stroke-width="1" stroke-linecap="butt" stroke-linejoin="miter" stroke-miterlimit="10" stroke-dasharray="3,3" stroke-dashoffset="0" d="M 0.5,0 L 0.5,250" transform="matrix(1, 0, 0, 1, 30.195480346679688, 25.93518524169922)" data-port-id=""/></g><g transform="matrix(1, 0, 0, 1, 141.3045196533203, -25.43518524169922)" data-class-name="Group" data-key="Objeto2"><g transform="matrix(1, 0, 0, 1, 0, 0)"><path stroke="none" fill="url(#GRAD765)" d="M 0,0 L 60.390960693359375,0 L 60.390960693359375,24.43518524169922 L 0,24.43518524169922 z" transform="matrix(1, 0, 0, 1, 0.5, 0.5)"/><text x="0" y="10.826388931274415" style="font: 400 10pt Source Sans Pro, sans-serif" text-anchor="start" fill="black" transform="matrix(1, 0, 0, 1, 5.5, 5.5)">Objeto 2</text></g><path stroke="gray" fill="none" stroke-width="1" stroke-linecap="butt" stroke-linejoin="miter" stroke-miterlimit="10" stroke-dasharray="3,3" stroke-dashoffset="0" d="M 0.5,0 L 0.5,250" transform="matrix(1, 0, 0, 1, 30.195480346679688, 25.93518524169922)" data-port-id=""/></g><g transform="matrix(1, 0, 0, 1, 303.3045196533203, -25.43518524169922)" data-class-name="Group" data-key="Objeto3"><g transform="matrix(1, 0, 0, 1, 0, 0)"><path stroke="none" fill="url(#GRAD766)" d="M 0,0 L 60.390960693359375,0 L 60.390960693359375,24.43518524169922 L 0,24.43518524169922 z" transform="matrix(1, 0, 0, 1, 0.5, 0.5)"/><text x="0" y="10.826388931274415" style="font: 400 10pt Source Sans Pro, sans-serif" text-anchor="start" fill="black" transform="matrix(1, 0, 0, 1, 5.5, 5.5)">Objeto 3</text></g><path stroke="gray" fill="none" stroke-width="1" stroke-linecap="butt" stroke-linejoin="miter" stroke-miterlimit="10" stroke-dasharray="3,3" stroke-dashoffset="0" d="M 0.5,0 L 0.5,250" transform="matrix(1, 0, 0, 1, 30.195480346679688, 25.93518524169922)" data-port-id=""/></g><g transform="matrix(1, 0, 0, 1, 0, 35)" data-class-name="Node" data-key="-4"><path stroke="black" fill="white" stroke-width="1" stroke-linecap="butt" stroke-linejoin="miter" stroke-miterlimit="10" d="M 0,0 L 10,0 L 10,50 L 0,50 z" transform="matrix(1, 0, 0, 1, 0.5, 0.5)"/></g><g transform="matrix(1, 0, 0, 1, 172, 55)" data-class-name="Node" data-key="-5"><path stroke="black" fill="white" stroke-width="1" stroke-linecap="butt" stroke-linejoin="miter" stroke-miterlimit="10" d="M 0,0 L 10,0 L 10,70 L 0,70 z" transform="matrix(1, 0, 0, 1, 0.5, 0.5)"/></g><g transform="matrix(1, 0, 0, 1, 334, 75)" data-class-name="Node" data-key="-6"><path stroke="black" fill="white" stroke-width="1" stroke-linecap="butt" stroke-linejoin="miter" stroke-miterlimit="10" d="M 0,0 L 10,0 L 10,30 L 0,30 z" transform="matrix(1, 0, 0, 1, 0.5, 0.5)"/></g><g transform="matrix(1, 0, 0, 1, 0, 115)" data-class-name="Node" data-key="-7"><path stroke="black" fill="white" stroke-width="1" stroke-linecap="butt" stroke-linejoin="miter" stroke-miterlimit="10" d="M 0,0 L 10,0 L 10,30 L 0,30 z" transform="matrix(1, 0, 0, 1, 0.5, 0.5)"/></g><g transform="matrix(1, 0, 0, 1, 172, 195)" data-class-name="Node" data-key="-8"><path stroke="black" fill="white" stroke-width="1" stroke-linecap="butt" stroke-linejoin="miter" stroke-miterlimit="10" d="M 0,0 L 10,0 L 10,30 L 0,30 z" transform="matrix(1, 0, 0, 1, 0.5, 0.5)"/></g><g transform="matrix(1, 0, 0, 1, 4.5, 24.005078124999997)" data-class-name="Link" data-key="-1" data-from-key="Objeto1" data-to-key="Objeto3"><path stroke="black" fill="none" stroke-width="1" stroke-linecap="butt" stroke-linejoin="miter" stroke-miterlimit="10" d="M 0,0 L 329,0" transform="matrix(1, 0, 0, 1, 0.5, 15.994921875000003)"/><path stroke="black" fill="none" stroke-width="1" stroke-linecap="butt" stroke-linejoin="miter" stroke-miterlimit="10" d="M 0,0 L 8,4 L 0,8" transform="matrix(1, 0, 0, 1, 321, 11.994921875000003)"/><text x="0" y="9.74619140625" style="font: 400 9pt Source Sans Pro, sans-serif" text-anchor="start" fill="black" transform="matrix(1, 0, 0, 1, 3.5, 0)">create()</text></g><g transform="matrix(1, 0, 0, 1, 4.5, 44.005078125)" data-class-name="Link" data-key="-2" data-from-key="Objeto1" data-to-key="Objeto3"><path stroke="black" fill="none" stroke-width="1" stroke-linecap="butt" stroke-linejoin="miter" stroke-miterlimit="10" d="M 0,0 L 329,0" transform="matrix(1, 0, 0, 1, 0.5, 15.994921875000003)"/><path stroke="black" fill="none" stroke-width="1" stroke-linecap="butt" stroke-linejoin="miter" stroke-miterlimit="10" d="M 0,0 L 8,4 L 0,8" transform="matrix(1, 0, 0, 1, 321, 11.994921875000003)"/><text x="0" y="9.74619140625" style="font: 400 9pt Source Sans Pro, sans-serif" text-anchor="start" fill="black" transform="matrix(1, 0, 0, 1, 3.5, 0)">searchBook(book=integer) and &lt;&lt;destroy&gt;&gt;</text></g><g transform="matrix(1, 0, 0, 1, 4.5, 75.5)" data-class-name="Link" data-key="-3" data-from-key="Objeto3" data-to-key="Objeto1"><path stroke="black" fill="none" stroke-width="1" stroke-linecap="butt" stroke-linejoin="miter" stroke-miterlimit="10" d="M 324,0 L 0,0" transform="matrix(1, 0, 0, 1, 0.5, 4.5)"/><path stroke="black" fill="none" stroke-width="1" stroke-linecap="butt" stroke-linejoin="miter" stroke-miterlimit="10" d="M 0,0 L 8,4 L 0,8" transform="matrix(-1, 0, 0, -1, 9, 8.5)"/><text x="0" y="9.74619140625" style="font: 400 9pt Source Sans Pro, sans-serif" text-anchor="start" fill="black" transform="matrix(1, 0, 0, 1, 280.8125, 7.500000000000001)">book(5)</text></g><g transform="matrix(1, 0, 0, 1, 4.5, 104.005078125)" data-class-name="Link" data-key="-4" data-from-key="Objeto1" data-to-key="Objeto2"><path stroke="black" fill="none" stroke-width="1" stroke-linecap="butt" stroke-linejoin="miter" stroke-miterlimit="10" d="M 0,0 L 162,0" transform="matrix(1, 0, 0, 1, 0.5, 15.994921875000003)"/><path stroke="black" fill="none" stroke-width="1" stroke-linecap="butt" stroke-linejoin="miter" stroke-miterlimit="10" d="M 0,0 L 8,4 L 0,8" transform="matrix(1, 0, 0, 1, 154, 11.994921875000003)"/><text x="0" y="9.74619140625" style="font: 400 9pt Source Sans Pro, sans-serif" text-anchor="start" fill="black" transform="matrix(1, 0, 0, 1, 3.5, 0)">takeOrder</text></g><g transform="matrix(1, 0, 0, 1, 4.5, 135.5)" data-class-name="Link" data-key="-5" data-from-key="Objeto2" data-to-key="Objeto1"><path stroke="black" fill="none" stroke-width="1" stroke-linecap="butt" stroke-linejoin="miter" stroke-miterlimit="10" d="M 167,0 L 0,0" transform="matrix(1, 0, 0, 1, 0.5, 4.5)"/><path stroke="black" fill="none" stroke-width="1" stroke-linecap="butt" stroke-linejoin="miter" stroke-miterlimit="10" d="M 0,0 L 8,4 L 0,8" transform="matrix(-1, 0, 0, -1, 9, 8.5)"/><text x="0" y="9.74619140625" style="font: 400 9pt Source Sans Pro, sans-serif" text-anchor="start" fill="black" transform="matrix(1, 0, 0, 1, 53.78125, 7.500000000000001)">serve orderReceived</text></g><g transform="matrix(1, 0, 0, 1, 176.5, 195.5)" data-class-name="Link" data-key="-6" data-from-key="Objeto3" data-to-key="Objeto2"><path stroke="black" fill="none" stroke-width="1" stroke-linecap="butt" stroke-linejoin="miter" stroke-miterlimit="10" d="M 157,0 L 0,0" transform="matrix(1, 0, 0, 1, 0.5, 4.5)"/><path stroke="black" fill="none" stroke-width="1" stroke-linecap="butt" stroke-linejoin="miter" stroke-miterlimit="10" d="M 0,0 L 8,4 L 0,8" transform="matrix(-1, 0, 0, -1, 9, 8.5)"/><text x="0" y="9.74619140625" style="font: 400 9pt Source Sans Pro, sans-serif" text-anchor="start" fill="black" transform="matrix(1, 0, 0, 1, 109.142578125, 7.500000000000001)">mensaje</text></g></g><g transform="matrix(1, 0, 0, 1, 31.695480346679688, 26.43518524169922)"/></g><clipPath id="mainClip763"><rect x="0" y="0" width="398px" height="279px"/></clipPath><linearGradient x1="30.195480346679688" x2="30.195480346679688" y1="0" y2="24.43518524169922" id="GRAD764" gradientUnits="userSpaceOnUse"><stop offset="0" stop-color="#bbdefb"/><stop offset="1" stop-color="rgb(159,194,222)" stop-opacity="1"/></linearGradient><linearGradient x1="30.195480346679688" x2="30.195480346679688" y1="0" y2="24.43518524169922" id="GRAD765" gradientUnits="userSpaceOnUse"><stop offset="0" stop-color="#bbdefb"/><stop offset="1" stop-color="rgb(159,194,222)" stop-opacity="1"/></linearGradient><linearGradient x1="30.195480346679688" x2="30.195480346679688" y1="0" y2="24.43518524169922" id="GRAD766" gradientUnits="userSpaceOnUse"><stop offset="0" stop-color="#bbdefb"/><stop offset="1" stop-color="rgb(159,194,222)" stop-opacity="1"/></linearGradient></svg>