<svg width="712px" height="283px" viewBox="0 0 712 283" xmlns="http://www.w3.org/2000/svg" xmlns:xlink="http://www.w3.org/1999/xlink" style="display: block; letter-spacing: normal; word-spacing: normal; width: 712px; height: 283px;"><rect x="0" y="0" width="712" height="283" fill="white" transform="matrix(1, 0, 0, 1, 0, 0)"/><g clip-path="url(#mainClip1680)"><g class="gojs-diagram" transform="matrix(1, 0, 0, 1, 27.249984741210938, 26.43518524169922)"><g transform="matrix(1, 0, 0, 1, -26.249984741210938, -25.43518524169922)" data-class-name="Group" data-key="Objeto1"><g transform="matrix(1, 0, 0, 1, 0, 0)"><path stroke="none" fill="url(#GRAD1681)" d="M 0,0 L 51.499969482421875,0 L 51.499969482421875,24.43518524169922 L 0,24.43518524169922 z" transform="matrix(1, 0, 0, 1, 0.5, 0.5)"/><text x="0" y="10.826388931274415" style="font: 400 10pt Source Sans Pro, sans-serif" text-anchor="start" fill="black" transform="matrix(1, 0, 0, 1, 5.5, 5.5)">Evento</text></g><path stroke="gray" fill="none" stroke-width="1" stroke-linecap="butt" stroke-linejoin="miter" stroke-miterlimit="10" stroke-dasharray="3,3" stroke-dashoffset="0" d="M 0.5,0 L 0.5,254" transform="matrix(1, 0, 0, 1, 25.749984741210938, 25.93518524169922)" data-port-id=""/></g><g transform="matrix(1, 0, 0, 1, 131.0145263671875, -25.43518524169922)" data-class-name="Group" data-key="Objeto2"><g transform="matrix(1, 0, 0, 1, 0, 0)"><path stroke="none" fill="url(#GRAD1682)" d="M 0,0 L 52.970947265625,0 L 52.970947265625,24.43518524169922 L 0,24.43518524169922 z" transform="matrix(1, 0, 0, 1, 0.5, 0.5)"/><text x="0" y="10.826388931274415" style="font: 400 10pt Source Sans Pro, sans-serif" text-anchor="start" fill="black" transform="matrix(1, 0, 0, 1, 5.5, 5.5)">Control</text></g><path stroke="gray" fill="none" stroke-width="1" stroke-linecap="butt" stroke-linejoin="miter" stroke-miterlimit="10" stroke-dasharray="3,3" stroke-dashoffset="0" d="M 0.5,0 L 0.5,254" transform="matrix(1, 0, 0, 1, 26.4854736328125, 25.93518524169922)" data-port-id=""/></g><g transform="matrix(1, 0, 0, 1, 0, 35)" data-class-name="Node" data-key="-4"><path stroke="black" fill="white" stroke-width="1" stroke-linecap="butt" stroke-linejoin="miter" stroke-miterlimit="10" d="M 0,0 L 10,0 L 10,50 L 0,50 z" transform="matrix(1, 0, 0, 1, 0.5, 0.5)"/></g><g transform="matrix(1, 0, 0, 1, 158, 55)" data-class-name="Node" data-key="-5"><path stroke="black" fill="white" stroke-width="1" stroke-linecap="butt" stroke-linejoin="miter" stroke-miterlimit="10" d="M 0,0 L 10,0 L 10,70 L 0,70 z" transform="matrix(1, 0, 0, 1, 0.5, 0.5)"/></g><g transform="matrix(1, 0, 0, 1, 0, 165)" data-class-name="Node" data-key="-7"><path stroke="black" fill="white" stroke-width="1" stroke-linecap="butt" stroke-linejoin="miter" stroke-miterlimit="10" d="M 0,0 L 10,0 L 10,30 L 0,30 z" transform="matrix(1, 0, 0, 1, 0.5, 0.5)"/></g><g transform="matrix(1, 0, 0, 1, 158, 205)" data-class-name="Node" data-key="-8"><path stroke="black" fill="white" stroke-width="1" stroke-linecap="butt" stroke-linejoin="miter" stroke-miterlimit="10" d="M 0,0 L 10,0 L 10,30 L 0,30 z" transform="matrix(1, 0, 0, 1, 0.5, 0.5)"/></g><g transform="matrix(1, 0, 0, 1, 150.640625, -1)" data-class-name="Node" data-key="Cond"><g transform="matrix(1, 0, 0, 1, 0, 0)"><path stroke="black" fill="rgb(0,0,0)" fill-opacity="0.1" stroke-width="2" stroke-linecap="butt" stroke-linejoin="miter" stroke-miterlimit="10" d="M 0,0 L 206.71875,0 L 206.71875,100 L 0,100 z" transform="matrix(1, 0, 0, 1, 1, 1)"/><g transform="matrix(1, 0, 0, 1, 54.359375, 1)"/><text x="0" y="12.994921875000001" style="font: bold 16px sans-serif" text-anchor="start" fill="black" transform="matrix(1, 0, 0, 1, 2, 2)">IF (Evento==actions.inicia)</text></g></g><g transform="matrix(1, 0, 0, 1, 158, 55)" data-class-name="Node" data-key="-13"><path stroke="black" fill="white" stroke-width="1" stroke-linecap="butt" stroke-linejoin="miter" stroke-miterlimit="10" d="M 0,0 L 10,0 L 10,30 L 0,30 z" transform="matrix(1, 0, 0, 1, 0.5, 0.5)"/></g><g transform="matrix(1, 0, 0, 1, 0, 135)" data-class-name="Node" data-key="-14"><path stroke="black" fill="white" stroke-width="1" stroke-linecap="butt" stroke-linejoin="miter" stroke-miterlimit="10" d="M 0,0 L 10,0 L 10,30 L 0,30 z" transform="matrix(1, 0, 0, 1, 0.5, 0.5)"/></g><g transform="matrix(1, 0, 0, 1, 158, 135)" data-class-name="Node" data-key="-15"><path stroke="black" fill="white" stroke-width="1" stroke-linecap="butt" stroke-linejoin="miter" stroke-miterlimit="10" d="M 0,0 L 10,0 L 10,30 L 0,30 z" transform="matrix(1, 0, 0, 1, 0.5, 0.5)"/></g><g transform="matrix(1, 0, 0, 1, 158, 75)" data-class-name="Node" data-key="-16"><path stroke="black" fill="white" stroke-width="1" stroke-linecap="butt" stroke-linejoin="miter" stroke-miterlimit="10" d="M 0,0 L 10,0 L 10,30 L 0,30 z" transform="matrix(1, 0, 0, 1, 0.5, 0.5)"/></g><g transform="matrix(1, 0, 0, 1, 158, 35)" data-class-name="Node" data-key="-17"><path stroke="black" fill="white" stroke-width="1" stroke-linecap="butt" stroke-linejoin="miter" stroke-miterlimit="10" d="M 0,0 L 10,0 L 10,30 L 0,30 z" transform="matrix(1, 0, 0, 1, 0.5, 0.5)"/></g><g transform="matrix(1, 0, 0, 1, 158, 95)" data-class-name="Node" data-key="-19"><path stroke="black" fill="white" stroke-width="1" stroke-linecap="butt" stroke-linejoin="miter" stroke-miterlimit="10" d="M 0,0 L 10,0 L 10,30 L 0,30 z" transform="matrix(1, 0, 0, 1, 0.5, 0.5)"/></g><g transform="matrix(1, 0, 0, 1, 158, 15)" data-class-name="Node" data-key="-18"><path stroke="black" fill="white" stroke-width="1" stroke-linecap="butt" stroke-linejoin="miter" stroke-miterlimit="10" d="M 0,0 L 10,0 L 10,30 L 0,30 z" transform="matrix(1, 0, 0, 1, 0.5, 0.5)"/></g><g transform="matrix(1, 0, 0, 1, 4.5, 164.005078125)" data-class-name="Link" data-key="-4" data-from-key="Objeto1" data-to-key="Objeto2"><path stroke="black" fill="none" stroke-width="1" stroke-linecap="butt" stroke-linejoin="miter" stroke-miterlimit="10" d="M 0,0 L 153,0" transform="matrix(1, 0, 0, 1, 0.5, 15.994921875000003)"/><path stroke="black" fill="none" stroke-width="1" stroke-linecap="butt" stroke-linejoin="miter" stroke-miterlimit="10" d="M 0,0 L 8,4 L 0,8" transform="matrix(1, 0, 0, 1, 145, 11.994921875000003)"/><text x="0" y="9.74619140625" style="font: 400 9pt Source Sans Pro, sans-serif" text-anchor="start" fill="black" transform="matrix(1, 0, 0, 1, 3.5, 0)">takeOrder</text></g><g transform="matrix(1, 0, 0, 1, -0.5, 195.5)" data-class-name="Link" data-key="-5" data-from-key="Objeto2" data-to-key="Objeto1"><path stroke="black" fill="none" stroke-width="1" stroke-linecap="butt" stroke-linejoin="miter" stroke-miterlimit="10" d="M 158,0 L 0,0" transform="matrix(1, 0, 0, 1, 0.5, 4.5)"/><path stroke="black" fill="none" stroke-width="1" stroke-linecap="butt" stroke-linejoin="miter" stroke-miterlimit="10" d="M 0,0 L 8,4 L 0,8" transform="matrix(-1, 0, 0, -1, 9, 8.5)"/><text x="0" y="9.74619140625" style="font: 400 9pt Source Sans Pro, sans-serif" text-anchor="start" fill="black" transform="matrix(1, 0, 0, 1, 44.78125, 7.500000000000001)">serve orderReceived</text></g><g transform="matrix(1, 0, 0, 1, -0.5, 199.005078125)" data-class-name="Link" data-key="-6" data-from-key="Objeto1" data-to-key="Objeto2"><path stroke="black" fill="none" stroke-width="1" stroke-linecap="butt" stroke-linejoin="miter" stroke-miterlimit="10" d="M 0,0 L 153,0" transform="matrix(1, 0, 0, 1, 0.5, 15.994921875000003)"/><path stroke="black" fill="none" stroke-width="1" stroke-linecap="butt" stroke-linejoin="miter" stroke-miterlimit="10" d="M 0,0 L 8,4 L 0,8" transform="matrix(1, 0, 0, 1, 145, 11.994921875000003)"/><text x="0" y="9.74619140625" style="font: 400 9pt Source Sans Pro, sans-serif" text-anchor="start" fill="black" transform="matrix(1, 0, 0, 1, 3.5, 0)">prob</text></g><g transform="matrix(1, 0, 0, 1, 4.5, 135.5)" data-class-name="Link" data-key="-9" data-from-key="Objeto2" data-to-key="Objeto1"><path stroke="black" fill="none" stroke-width="1" stroke-linecap="butt" stroke-linejoin="miter" stroke-miterlimit="10" d="M 148,0 L 0,0" transform="matrix(1, 0, 0, 1, 0.5, 4.5)"/><path stroke="black" fill="none" stroke-width="1" stroke-linecap="butt" stroke-linejoin="miter" stroke-miterlimit="10" d="M 0,0 L 8,4 L 0,8" transform="matrix(-1, 0, 0, -1, 9, 8.5)"/><text x="0" y="9.74619140625" style="font: 400 9pt Source Sans Pro, sans-serif" text-anchor="start" fill="black" transform="matrix(1, 0, 0, 1, 100.142578125, 7.500000000000001)">mensaje</text></g><g transform="matrix(1, 0, 0, 1, 4.5, 124.005078125)" data-class-name="Link" data-key="-7" data-from-key="Objeto1" data-to-key="Objeto2"><path stroke="black" fill="none" stroke-width="1" stroke-linecap="butt" stroke-linejoin="miter" stroke-miterlimit="10" d="M 0,0 L 148,0" transform="matrix(1, 0, 0, 1, 0.5, 15.994921875000003)"/><path stroke="black" fill="none" stroke-width="1" stroke-linecap="butt" stroke-linejoin="miter" stroke-miterlimit="10" d="M 0,0 L 8,4 L 0,8" transform="matrix(1, 0, 0, 1, 140, 11.994921875000003)"/><text x="0" y="9.74619140625" style="font: 400 9pt Source Sans Pro, sans-serif" text-anchor="start" fill="black" transform="matrix(1, 0, 0, 1, 3.5, 0)">mensaje</text></g><g transform="matrix(1, 0, 0, 1, 365.23326110839844, -25.43518524169922)" data-class-name="Group" data-key="newNode1714053573373"><g transform="matrix(1, 0, 0, 1, 0, 0)"><path stroke="none" fill="url(#GRAD1683)" d="M 0,0 L 68.53347778320312,0 L 68.53347778320312,24.43518524169922 L 0,24.43518524169922 z" transform="matrix(1, 0, 0, 1, 0.5, 0.5)"/><text x="0" y="10.826388931274415" style="font: 400 10pt Source Sans Pro, sans-serif" text-anchor="start" fill="black" transform="matrix(1, 0, 0, 1, 5.5, 5.5)">NewNode</text></g><path stroke="gray" fill="none" stroke-width="1" stroke-linecap="butt" stroke-linejoin="miter" stroke-miterlimit="10" stroke-dasharray="3,3" stroke-dashoffset="0" d="M 0.5,0 L 0.5,110" transform="matrix(1, 0, 0, 1, 34.26673889160156, 25.93518524169922)" data-port-id=""/></g><g transform="matrix(1, 0, 0, 1, 613.2332611083984, -25.43518524169922)" data-class-name="Group" data-key="newNode1714053580191"><g transform="matrix(1, 0, 0, 1, 0, 0)"><path stroke="none" fill="url(#GRAD1684)" d="M 0,0 L 68.53347778320312,0 L 68.53347778320312,24.43518524169922 L 0,24.43518524169922 z" transform="matrix(1, 0, 0, 1, 0.5, 0.5)"/><text x="0" y="10.826388931274415" style="font: 400 10pt Source Sans Pro, sans-serif" text-anchor="start" fill="black" transform="matrix(1, 0, 0, 1, 5.5, 5.5)">NewNode</text></g><path stroke="gray" fill="none" stroke-width="1" stroke-linecap="butt" stroke-linejoin="miter" stroke-miterlimit="10" stroke-dasharray="3,3" stroke-dashoffset="0" d="M 0.5,0 L 0.5,110" transform="matrix(1, 0, 0, 1, 34.26673889160156, 25.93518524169922)" data-port-id=""/></g><g transform="matrix(1, 0, 0, 1, 400, 15)" data-class-name="Node" data-key="-20"><path stroke="black" fill="white" stroke-width="1" stroke-linecap="butt" stroke-linejoin="miter" stroke-miterlimit="10" d="M 0,0 L 10,0 L 10,30 L 0,30 z" transform="matrix(1, 0, 0, 1, 0.5, 0.5)"/></g><g transform="matrix(1, 0, 0, 1, 404.5, 15.5)" data-class-name="Link" data-key="-8" data-from-key="newNode1714053580191" data-to-key="newNode1714053573373"><path stroke="black" fill="none" stroke-width="1" stroke-linecap="butt" stroke-linejoin="miter" stroke-miterlimit="10" d="M 243,0 L 0,0" transform="matrix(1, 0, 0, 1, 0.5, 4.5)"/><path stroke="black" fill="none" stroke-width="1" stroke-linecap="butt" stroke-linejoin="miter" stroke-miterlimit="10" d="M 0,0 L 8,4 L 0,8" transform="matrix(-1, 0, 0, -1, 9, 8.5)"/><text x="0" y="9.74619140625" style="font: 400 9pt Source Sans Pro, sans-serif" text-anchor="start" fill="black" transform="matrix(1, 0, 0, 1, 195.142578125, 7.500000000000001)">mensaje</text></g><g transform="matrix(1, 0, 0, 1, 453.23326110839844, -25.43518524169922)" data-class-name="Group" data-key="newNode1714053666710"><g transform="matrix(1, 0, 0, 1, 0, 0)"><path stroke="none" fill="url(#GRAD1685)" d="M 0,0 L 68.53347778320312,0 L 68.53347778320312,24.43518524169922 L 0,24.43518524169922 z" transform="matrix(1, 0, 0, 1, 0.5, 0.5)"/><text x="0" y="10.826388931274415" style="font: 400 10pt Source Sans Pro, sans-serif" text-anchor="start" fill="black" transform="matrix(1, 0, 0, 1, 5.5, 5.5)">NewNode</text></g><path stroke="gray" fill="none" stroke-width="1" stroke-linecap="butt" stroke-linejoin="miter" stroke-miterlimit="10" stroke-dasharray="3,3" stroke-dashoffset="0" d="M 0.5,0 L 0.5,110" transform="matrix(1, 0, 0, 1, 34.26673889160156, 25.93518524169922)" data-port-id=""/></g></g><g transform="matrix(1, 0, 0, 1, 27.249984741210938, 26.43518524169922)"/></g><clipPath id="mainClip1680"><rect x="0" y="0" width="712px" height="283px"/></clipPath><linearGradient x1="25.749984741210938" x2="25.749984741210938" y1="0" y2="24.43518524169922" id="GRAD1681" gradientUnits="userSpaceOnUse"><stop offset="0" stop-color="#bbdefb"/><stop offset="1" stop-color="rgb(159,194,222)" stop-opacity="1"/></linearGradient><linearGradient x1="26.4854736328125" x2="26.4854736328125" y1="0" y2="24.43518524169922" id="GRAD1682" gradientUnits="userSpaceOnUse"><stop offset="0" stop-color="#bbdefb"/><stop offset="1" stop-color="rgb(159,194,222)" stop-opacity="1"/></linearGradient><linearGradient x1="34.26673889160156" x2="34.26673889160156" y1="0" y2="24.43518524169922" id="GRAD1683" gradientUnits="userSpaceOnUse"><stop offset="0" stop-color="#bbdefb"/><stop offset="1" stop-color="rgb(159,194,222)" stop-opacity="1"/></linearGradient><linearGradient x1="34.26673889160156" x2="34.26673889160156" y1="0" y2="24.43518524169922" id="GRAD1684" gradientUnits="userSpaceOnUse"><stop offset="0" stop-color="#bbdefb"/><stop offset="1" stop-color="rgb(159,194,222)" stop-opacity="1"/></linearGradient><linearGradient x1="34.26673889160156" x2="34.26673889160156" y1="0" y2="24.43518524169922" id="GRAD1685" gradientUnits="userSpaceOnUse"><stop offset="0" stop-color="#bbdefb"/><stop offset="1" stop-color="rgb(159,194,222)" stop-opacity="1"/></linearGradient></svg>